<svg height="512" viewBox="0 0 128 128" width="512" xmlns="http://www.w3.org/2000/svg"><g><g><path d="m108.25 9.5v16.1c0 .49-.01.97-.03 1.46a131.53 131.53 0 0 1 -16.36 2.05 1.753 1.753 0 0 0 .13 3.5h.13a144.09 144.09 0 0 0 15.79-1.9 38.935 38.935 0 0 1 -4.57 13.81 38.477 38.477 0 0 1 -8.33 10.31 35.308 35.308 0 0 1 -3.19 2.52c-.64.46-1.3.89-1.97 1.31a38.718 38.718 0 0 0 -10.05 8.96c-4.69.32-9.97.51-15.8.51-2.8 0-5.6-.04-8.32-.13a1.757 1.757 0 0 0 -1.8 1.69 1.738 1.738 0 0 0 1.69 1.8c2.75.1 5.59.14 8.43.14.64 0 6.21-.01 13.27-.4a38.914 38.914 0 0 0 -5.69 17.3 19.006 19.006 0 0 0 -14.27 10.73 15.949 15.949 0 0 0 -17-4.23 23.7 23.7 0 0 1 -3.79-28.95 23.691 23.691 0 0 0 .96-22.31c10.33.93 20.13.95 20.99.95 2.63 0 5.26-.04 7.83-.12a1.746 1.746 0 1 0 -.11-3.49c-2.53.07-5.13.11-7.72.11a212.627 212.627 0 0 1 -23.21-1.16 20.849 20.849 0 0 0 -1.86-2.26l-6.17-6.58-1.06-1.13a20.647 20.647 0 0 1 -1.43-1.67 23.647 23.647 0 0 1 -4.99-14.55v-4.37c0 4.28 19.81 7.75 44.25 7.75s44.25-3.47 44.25-7.75z" fill="#d7d7d7"/><path d="m79.8 67.62a38.417 38.417 0 0 0 -2.53 3.61c-7.06.39-12.63.4-13.27.4-2.84 0-5.68-.04-8.43-.14a1.738 1.738 0 0 1 -1.69-1.8 1.757 1.757 0 0 1 1.8-1.69c2.72.09 5.52.13 8.32.13 5.83 0 11.11-.19 15.8-.51z" fill="#d7d7d7"/><path d="m68 42.8a1.746 1.746 0 0 1 -1.7 1.8c-2.57.08-5.2.12-7.83.12-.86 0-10.66-.02-20.99-.95a22.337 22.337 0 0 0 -2.22-3.71 212.627 212.627 0 0 0 23.21 1.16c2.59 0 5.19-.04 7.72-.11a1.76 1.76 0 0 1 1.81 1.69z" fill="#d7d7d7"/><path d="m108.22 27.06c-.04 1.23-.15 2.45-.31 3.65a144.09 144.09 0 0 1 -15.79 1.9h-.13a1.753 1.753 0 0 1 -.13-3.5 131.53 131.53 0 0 0 16.36-2.05z" fill="#d7d7d7"/><path d="m116.6 106.956c-.231 0-.458.019-.685.035a14.8 14.8 0 0 0 -23.808-6.718 18.955 18.955 0 0 0 -34.8-1.012 16.033 16.033 0 0 0 -26.659 5 12.525 12.525 0 0 0 -20.148 5.686c-.192-.014-.384-.03-.58-.03a8.167 8.167 0 0 0 0 16.333h106.68a9.647 9.647 0 1 0 0-19.294z" fill="#bebebe"/><path d="m39.941 109.706a1.75 1.75 0 0 1 -1.625-2.4 7.771 7.771 0 0 1 7.256-4.926 1.75 1.75 0 0 1 0 3.5 4.291 4.291 0 0 0 -4 2.719 1.749 1.749 0 0 1 -1.631 1.107zm42.878-3.986a1.751 1.751 0 0 1 -1.627-1.1 7.186 7.186 0 0 0 -6.71-4.556 1.75 1.75 0 0 1 0-3.5 10.669 10.669 0 0 1 9.962 6.763 1.75 1.75 0 0 1 -1.625 2.4z" fill="#d7d7d7"/><g fill="#bebebe"><ellipse cx="64" cy="9.501" rx="44.25" ry="7.751"/><path d="m56.7 81.707h-.052c-5.934-.172-11.521-.548-16.606-1.117a1.75 1.75 0 1 1 .389-3.478c4.99.558 10.48.927 16.319 1.1a1.75 1.75 0 0 1 -.05 3.5z"/><path d="m64 58.061c-3.652 0-7.282-.078-10.788-.23a1.75 1.75 0 0 1 -1.672-1.825 1.732 1.732 0 0 1 1.824-1.672c6.469.282 13.427.3 19.947.054a1.75 1.75 0 1 1 .133 3.5c-3.082.112-6.259.173-9.444.173z"/><path d="m60.75 34.162h-.03c-6.648-.11-12.923-.472-18.651-1.075a1.75 1.75 0 0 1 .367-3.481c5.625.592 11.8.948 18.342 1.057a1.75 1.75 0 0 1 -.028 3.5z"/><path d="m95.01 54.83a35.308 35.308 0 0 1 -3.19 2.52 1.742 1.742 0 0 0 1.13.69c9.85 1.52 13 3.38 13.51 4.1-1.06 1.72-10.32 4.38-26.66 5.48-4.69.32-9.97.51-15.8.51-2.8 0-5.6-.04-8.32-.13a1.757 1.757 0 0 0 -1.8 1.69 1.738 1.738 0 0 0 1.69 1.8c2.75.1 5.59.14 8.43.14.64 0 6.21-.01 13.27-.4 13.61-.75 32.73-2.91 32.73-9.1 0-2.07-1.59-5.05-14.99-7.3z"/><path d="m68 42.8a1.746 1.746 0 0 1 -1.7 1.8c-2.57.08-5.2.12-7.83.12-.86 0-10.66-.02-20.99-.95-12.13-1.11-25.01-3.47-25.01-8.55 0-1.88 1.29-4.59 12.27-6.8a20.647 20.647 0 0 0 1.43 1.67l1.06 1.13a1.774 1.774 0 0 1 -.87.45c-8.32 1.57-10.04 3.17-10.35 3.56.91 1.44 7.55 3.54 19.25 4.83a212.627 212.627 0 0 0 23.21 1.16c2.59 0 5.19-.04 7.72-.11a1.76 1.76 0 0 1 1.81 1.69z"/><path d="m108.59 16.81a1.953 1.953 0 0 0 -.34-.03v3.54c7.5 1.5 9.1 3 9.41 3.38-.53.78-3.36 2.13-9.44 3.36a131.53 131.53 0 0 1 -16.36 2.05 1.753 1.753 0 0 0 .13 3.5h.13a144.09 144.09 0 0 0 15.79-1.9c7.51-1.41 13.29-3.61 13.29-7.02 0-3-4.01-5.18-12.61-6.88z"/></g></g><g><path d="m117.14 105.219a16.549 16.549 0 0 0 -24.349-7.645 20.6 20.6 0 0 0 -18.309-11.014c-.308 0-.614.017-.92.03a37.3 37.3 0 0 1 5.922-15.49c13.37-.864 30.516-3.111 30.516-8.967 0-1.954-1.419-4.711-12.805-6.911a40.235 40.235 0 0 0 12.52-24.874c6.608-1.42 11.487-3.529 11.487-6.662 0-2.827-3.572-4.93-11.2-6.58v-7.606c-.002-9.392-44.124-9.5-46.002-9.5s-46 .108-46 9.5v4.373a25.345 25.345 0 0 0 4.86 14.951c-9.242 2.127-10.392 4.636-10.392 6.4 0 4.785 11.448 7.16 22.93 8.339a22.076 22.076 0 0 1 -.385 21.629 25.37 25.37 0 0 0 2.346 29.185 17.693 17.693 0 0 0 -7.384 7.218 14.278 14.278 0 0 0 -20.7 6.594 9.916 9.916 0 0 0 .641 19.811h58.084a1.75 1.75 0 0 0 0-3.5h-58.084a6.417 6.417 0 0 1 0-12.833c.132 0 .26.011.456.025a1.763 1.763 0 0 0 1.793-1.218 10.776 10.776 0 0 1 17.335-4.892 1.75 1.75 0 0 0 2.772-.675 14.23 14.23 0 0 1 8.6-8.232c.043-.015.087-.027.13-.045a14.381 14.381 0 0 1 4.564-.747 14.153 14.153 0 0 1 10.457 4.571 1.749 1.749 0 0 0 2.871-.454 17.206 17.206 0 0 1 31.59.918 1.751 1.751 0 0 0 2.774.674 13.046 13.046 0 0 1 20.991 5.924 1.828 1.828 0 0 0 1.871 1.212c.16-.011.32-.024.482-.024a7.9 7.9 0 1 1 0 15.794h-16.727a1.75 1.75 0 0 0 0 3.5h16.725a11.4 11.4 0 0 0 .538-22.781zm-10.68-43.081c-1.007 1.627-9.4 4.111-24.207 5.306a36.874 36.874 0 0 1 8.516-7.3c1-.621 1.958-1.293 2.891-1.987 9.281 1.496 12.307 3.286 12.8 3.981zm11.2-38.443c-.479.7-2.811 1.866-7.69 2.986.009-.359.034-.716.034-1.077v-4.91c5.985 1.372 7.378 2.655 7.652 3.006zm-101.648 11.54c.295-.375 1.916-1.872 9.41-3.38l6.703 7.145c.234.25.445.513.665.771-10.166-1.303-15.938-3.205-16.778-4.536zm40.838 61.2a17.809 17.809 0 0 0 -16.019-3.418 21.878 21.878 0 0 1 -2.8-26.045 25.575 25.575 0 0 0 1.423-23.04c9.574.772 18.21.793 19.019.793 2.63 0 5.266-.041 7.836-.121a1.75 1.75 0 0 0 1.691-1.804 1.771 1.771 0 0 0 -1.8-1.7c-2.532.079-5.133.119-7.726.119-8.071 0-15.071-.362-20.939-.926a25.059 25.059 0 0 0 -2.857-3.693l-7.234-7.7a21.876 21.876 0 0 1 -5.944-15.026v-.238c2.784 1.38 7.781 2.823 16.768 3.936a1.75 1.75 0 0 0 .432-3.472c-12.641-1.566-16.578-3.761-17.158-4.6 1.358-2.21 16.315-6 42.458-6 26.158 0 41.116 3.794 42.463 6-1.347 2.207-16.306 6-42.463 6-3.4 0-6.779-.068-10.051-.2a1.75 1.75 0 0 0 -.142 3.5c3.318.134 6.748.2 10.193.2 1.554 0 32.027-.074 42.5-5.421v12.021c0 .6-.029 1.2-.057 1.791a140.733 140.733 0 0 1 -14.579 1.72 1.75 1.75 0 0 0 .124 3.5h.128c4.609-.331 9.524-.828 13.978-1.572a36.849 36.849 0 0 1 -17.168 26.128 40.473 40.473 0 0 0 -11.381 10.6c-4.109.232-8.629.366-13.545.366-2.8 0-5.6-.046-8.316-.137a1.75 1.75 0 1 0 -.118 3.5c2.752.092 5.59.139 8.434.139.578 0 5.159-.01 11.221-.3a40.719 40.719 0 0 0 -5.234 15.735 20.837 20.837 0 0 0 -13.137 9.365z"/><path d="m87.5 124.5h-7.124a1.75 1.75 0 0 0 0 3.5h7.124a1.75 1.75 0 0 0 0-3.5z"/><path d="m81.192 104.616a1.75 1.75 0 1 0 3.252-1.293 10.669 10.669 0 0 0 -9.962-6.763 1.75 1.75 0 0 0 0 3.5 7.186 7.186 0 0 1 6.71 4.556z"/><path d="m38.316 107.309a1.75 1.75 0 1 0 3.252 1.293 4.291 4.291 0 0 1 4-2.719 1.75 1.75 0 0 0 0-3.5 7.771 7.771 0 0 0 -7.252 4.926z"/><path d="m56.747 78.208c-5.839-.17-11.329-.539-16.319-1.1a1.75 1.75 0 1 0 -.389 3.478c5.085.569 10.672.945 16.606 1.117h.055a1.75 1.75 0 0 0 .05-3.5z"/><path d="m53.212 57.831c3.506.152 7.136.23 10.788.23 3.185 0 6.362-.059 9.444-.176a1.75 1.75 0 1 0 -.133-3.5c-6.52.246-13.478.228-19.947-.054a1.732 1.732 0 0 0 -1.824 1.672 1.75 1.75 0 0 0 1.672 1.828z"/><path d="m60.778 30.662c-6.546-.109-12.717-.465-18.342-1.057a1.75 1.75 0 0 0 -.367 3.481c5.728.6 12 .965 18.651 1.075h.03a1.75 1.75 0 0 0 .028-3.5z"/></g></g></svg>